<?xml version="1.0" encoding="UTF-8"?>
<svg enable-background="new 0 0 432 432" version="1.1" viewBox="0 0 432 432" xml:space="preserve" xmlns="http://www.w3.org/2000/svg">
<style>
    path {
      fill: black;
    }
    @media (prefers-color-scheme: dark) {
      path {
        fill: white;
      }
    }
  </style>
<path class="st0" d="m216 414c-52.9 0-102.6-20.6-140-58s-58-87.1-58-140 20.6-102.6 58-140 87.1-58 140-58 102.6 20.6 140 58 58 87.1 58 140-20.6 102.6-58 140-87.1 58-140 58zm0-379.9c-100.3 0-181.9 81.6-181.9 181.9s81.6 181.9 181.9 181.9 181.9-81.6 181.9-181.9-81.6-181.9-181.9-181.9zm-23.6 123.9-115.6-28.6 76.8 91.1-63 101.2 110.4-44.9 76.8 91.1-8.6-118.8 110.4-44.9-115.6-28.6-8.6-118.8-63 101.2z"/>
</svg>